<mxfile host="65bd71144e">
    <diagram id="ZaT-pUmXIxhjqoOlZgQA" name="Page-1">
        <mxGraphModel dx="1216" dy="812" grid="1" gridSize="10" guides="1" tooltips="1" connect="1" arrows="1" fold="1" page="1" pageScale="1" pageWidth="827" pageHeight="1169" math="0" shadow="0">
            <root>
                <mxCell id="0"/>
                <mxCell id="1" parent="0"/>
                <mxCell id="2" value="Harald" style="shape=umlLifeline;perimeter=lifelinePerimeter;whiteSpace=wrap;html=1;container=1;collapsible=0;recursiveResize=0;outlineConnect=0;" vertex="1" parent="1">
                    <mxGeometry x="30" y="70" width="100" height="530" as="geometry"/>
                </mxCell>
                <mxCell id="9" value="" style="html=1;points=[];perimeter=orthogonalPerimeter;" vertex="1" parent="2">
                    <mxGeometry x="45" y="80" width="10" height="170" as="geometry"/>
                </mxCell>
                <mxCell id="10" value="&#10;&lt;span style=&quot;color: rgb(240, 240, 240); font-family: Helvetica; font-size: 12px; font-style: normal; font-variant-ligatures: normal; font-variant-caps: normal; font-weight: 400; letter-spacing: normal; orphans: 2; text-align: center; text-indent: 0px; text-transform: none; widows: 2; word-spacing: 0px; -webkit-text-stroke-width: 0px; background-color: rgb(42, 37, 47); text-decoration-thickness: initial; text-decoration-style: initial; text-decoration-color: initial; float: none; display: inline !important;&quot;&gt;&quot;get_model_monitor_configuration.sh&quot;&lt;/span&gt;&#10;&#10;" style="edgeStyle=orthogonalEdgeStyle;html=1;align=left;spacingLeft=2;endArrow=block;rounded=0;entryX=1;entryY=0;" edge="1" target="9" parent="2">
                    <mxGeometry relative="1" as="geometry">
                        <mxPoint x="50" y="60" as="sourcePoint"/>
                        <Array as="points">
                            <mxPoint x="90" y="60"/>
                            <mxPoint x="90" y="80"/>
                        </Array>
                    </mxGeometry>
                </mxCell>
                <mxCell id="11" value="Login" style="html=1;verticalAlign=bottom;endArrow=block;" edge="1" parent="2" target="3">
                    <mxGeometry width="80" relative="1" as="geometry">
                        <mxPoint x="50" y="120" as="sourcePoint"/>
                        <mxPoint x="130" y="120" as="targetPoint"/>
                    </mxGeometry>
                </mxCell>
                <mxCell id="12" value="Token" style="html=1;verticalAlign=bottom;endArrow=open;dashed=1;endSize=8;" edge="1" parent="2" source="3">
                    <mxGeometry relative="1" as="geometry">
                        <mxPoint x="130" y="150" as="sourcePoint"/>
                        <mxPoint x="50" y="150" as="targetPoint"/>
                    </mxGeometry>
                </mxCell>
                <mxCell id="13" value="Retrieve Device Config JSON" style="html=1;verticalAlign=bottom;endArrow=block;" edge="1" parent="2" target="5">
                    <mxGeometry width="80" relative="1" as="geometry">
                        <mxPoint x="50" y="190" as="sourcePoint"/>
                        <mxPoint x="130" y="190" as="targetPoint"/>
                    </mxGeometry>
                </mxCell>
                <mxCell id="14" value="Device Config JSON" style="html=1;verticalAlign=bottom;endArrow=open;dashed=1;endSize=8;" edge="1" parent="2" source="5">
                    <mxGeometry relative="1" as="geometry">
                        <mxPoint x="130" y="230" as="sourcePoint"/>
                        <mxPoint x="50" y="230" as="targetPoint"/>
                    </mxGeometry>
                </mxCell>
                <mxCell id="17" value="Initialise with Endpoint" style="html=1;verticalAlign=bottom;endArrow=block;" edge="1" parent="2" target="7">
                    <mxGeometry width="80" relative="1" as="geometry">
                        <mxPoint x="50" y="370" as="sourcePoint"/>
                        <mxPoint x="130" y="370" as="targetPoint"/>
                    </mxGeometry>
                </mxCell>
                <mxCell id="19" value="Start" style="html=1;verticalAlign=bottom;endArrow=block;" edge="1" parent="2" target="7">
                    <mxGeometry width="80" relative="1" as="geometry">
                        <mxPoint x="50" y="410" as="sourcePoint"/>
                        <mxPoint x="130" y="410" as="targetPoint"/>
                    </mxGeometry>
                </mxCell>
                <mxCell id="20" value="Initialise with Instrumentation Key" style="html=1;verticalAlign=bottom;endArrow=block;" edge="1" parent="2" target="6">
                    <mxGeometry width="80" relative="1" as="geometry">
                        <mxPoint x="50" y="450" as="sourcePoint"/>
                        <mxPoint x="130" y="450" as="targetPoint"/>
                    </mxGeometry>
                </mxCell>
                <mxCell id="21" value="Start" style="html=1;verticalAlign=bottom;endArrow=block;" edge="1" parent="2" target="6">
                    <mxGeometry width="80" relative="1" as="geometry">
                        <mxPoint x="50" y="490" as="sourcePoint"/>
                        <mxPoint x="130" y="490" as="targetPoint"/>
                    </mxGeometry>
                </mxCell>
                <mxCell id="3" value="AAD" style="shape=umlLifeline;perimeter=lifelinePerimeter;whiteSpace=wrap;html=1;container=1;collapsible=0;recursiveResize=0;outlineConnect=0;" vertex="1" parent="1">
                    <mxGeometry x="200" y="70" width="100" height="530" as="geometry"/>
                </mxCell>
                <mxCell id="5" value="KeyVault" style="shape=umlLifeline;perimeter=lifelinePerimeter;whiteSpace=wrap;html=1;container=1;collapsible=0;recursiveResize=0;outlineConnect=0;" vertex="1" parent="1">
                    <mxGeometry x="364" y="70" width="100" height="530" as="geometry"/>
                </mxCell>
                <mxCell id="6" value="OTelCol" style="shape=umlLifeline;perimeter=lifelinePerimeter;whiteSpace=wrap;html=1;container=1;collapsible=0;recursiveResize=0;outlineConnect=0;" vertex="1" parent="1">
                    <mxGeometry x="530" y="70" width="100" height="530" as="geometry"/>
                </mxCell>
                <mxCell id="22" value="Send Telemetry" style="html=1;verticalAlign=bottom;endArrow=block;" edge="1" parent="6" target="7">
                    <mxGeometry width="80" relative="1" as="geometry">
                        <mxPoint x="50" y="510" as="sourcePoint"/>
                        <mxPoint x="130" y="510" as="targetPoint"/>
                    </mxGeometry>
                </mxCell>
                <mxCell id="7" value="AAD Auth Proxy" style="shape=umlLifeline;perimeter=lifelinePerimeter;whiteSpace=wrap;html=1;container=1;collapsible=0;recursiveResize=0;outlineConnect=0;" vertex="1" parent="1">
                    <mxGeometry x="710" y="70" width="100" height="530" as="geometry"/>
                </mxCell>
                <mxCell id="8" value="AppInsights" style="shape=umlLifeline;perimeter=lifelinePerimeter;whiteSpace=wrap;html=1;container=1;collapsible=0;recursiveResize=0;outlineConnect=0;" vertex="1" parent="1">
                    <mxGeometry x="890" y="70" width="100" height="530" as="geometry"/>
                </mxCell>
                <mxCell id="15" value="Initialise with Certifiicate" style="html=1;verticalAlign=bottom;endArrow=block;" edge="1" parent="1" source="2" target="7">
                    <mxGeometry width="80" relative="1" as="geometry">
                        <mxPoint x="80" y="400" as="sourcePoint"/>
                        <mxPoint x="160" y="400" as="targetPoint"/>
                        <Array as="points">
                            <mxPoint x="510" y="400"/>
                        </Array>
                    </mxGeometry>
                </mxCell>
                <mxCell id="23" value="Forward Telemetry" style="html=1;verticalAlign=bottom;endArrow=block;" edge="1" parent="1" target="8">
                    <mxGeometry width="80" relative="1" as="geometry">
                        <mxPoint x="760" y="600" as="sourcePoint"/>
                        <mxPoint x="840" y="600" as="targetPoint"/>
                    </mxGeometry>
                </mxCell>
            </root>
        </mxGraphModel>
    </diagram>
</mxfile>
